<svg width="647" height="647" viewBox="0 0 647 647" fill="none" xmlns="http://www.w3.org/2000/svg">
<path d="M195.365 256.326C195.365 256.326 174.117 261.709 168.643 280.735C163.168 299.762 201.725 362.549 201.725 362.549L353.152 304.557L318.536 220.225L195.365 256.326Z" fill="#C6DBF9"/>
<path d="M224.296 278.72C224.296 278.72 207.43 292.09 200.682 308.398C193.933 324.707 189.439 354.868 188.739 366.289C208.292 389.708 298.353 383.847 298.353 383.847L395.851 295.213C395.851 295.213 385.019 266.119 378.695 257.714C372.37 249.309 349.973 236.976 321.307 244.418C302.394 265.038 224.296 278.72 224.296 278.72Z" fill="#E1EBFF"/>
<path d="M337.7 242.137L330.374 243.156C322.56 259.638 309.161 273.383 291.422 280.492C276.378 286.52 262.206 287.845 249.416 286.193C240.275 285.013 231.838 282.312 224.295 278.721L216.629 285.77C216.629 285.77 227.791 291.009 245.012 293.244L245.16 293.263C256.848 294.765 271.307 294.878 286.965 291.041C325.804 281.525 337.7 242.137 337.7 242.137Z" fill="#C6DAFF"/>
<path d="M334.468 426.498C334.468 426.498 375.879 432.506 387.14 437.044C398.449 441.611 420.047 515.142 431.722 523.63C443.398 532.117 455.773 522.73 470.943 516.653C486.112 510.576 500.339 502.549 501.353 498.476C502.368 494.404 498.914 477.238 494.254 472.954C489.617 468.867 474.598 466.471 465.91 470.372C458.296 435.678 447.618 386.821 433.125 378.401C418.632 369.98 372.485 360.517 372.485 360.517L334.468 426.498Z" fill="#E1EBFF"/>
<path d="M389.622 404.003L352.874 421.138C358.086 424.553 363.284 428.322 367.749 432.15C375.839 433.739 383.279 435.505 387.157 437.048C389.919 438.146 393.357 443.511 397.053 450.956C408.447 473.895 417.447 503.331 424.122 512.204C424.542 512.755 425.106 514.98 425.547 515.457C427.085 517.126 429.587 523.448 431.456 524.298C437.213 526.915 442.745 522.818 448.932 518.789C448.932 518.788 449.075 518.558 449.075 518.558C431.1 508.1 430.386 437.528 422.666 423.731C417.353 414.236 399.989 407.309 389.622 404.003Z" fill="#D4E2FF"/>
<path d="M223.652 405.775C223.652 405.775 242.309 462.664 263.563 480.266C284.815 497.869 326.168 502.453 336.53 513.489C346.892 524.526 339.14 570.249 349.173 583.893C359.206 597.537 374.555 607.057 389.955 607.612C405.356 608.166 418.461 602.397 419.479 595.565C420.498 588.732 420.639 582.716 413.944 578.157C407.25 573.598 397.585 569.283 397.667 564.962C397.749 560.641 397.749 494.851 396.519 476.798C395.236 458.628 372.715 430.499 341.169 413.828C312.791 383.079 262.449 388.187 262.449 388.187L223.652 405.775Z" fill="#E1EBFF"/>
<path d="M268.4 399.016C260.084 407.099 248.82 414.3 231.619 415.472C230.112 415.575 228.653 415.618 227.24 415.604L229.236 421.072C229.236 421.072 230.467 421.295 232.662 421.578C239.567 422.47 256.029 423.96 273.829 420.991L268.4 399.016Z" fill="#C6DAFF"/>
<path d="M305.939 146.475C284.565 131.214 236.968 120.855 202.525 153.862C168.082 186.871 177.916 226.989 188.099 246.412C198.771 266.766 240.008 301.093 291.421 280.491C342.835 259.889 357.805 183.507 305.939 146.475Z" fill="#E1EBFF"/>
<path d="M299.072 168.494C318.842 175.999 328.392 206.33 318.004 232.848C307.615 259.366 281.64 274.74 255.131 271.472C228.623 268.204 204.631 246.689 209.14 212.911C213.476 180.433 256.148 152.199 299.072 168.494Z" fill="#1C3177"/>
<path d="M251.923 332.337L251.921 332.337C224.6 335.321 240.841 366.052 212.673 374.952C227.491 375.691 236.196 367.077 241.182 363.411C243.727 361.539 243.523 359.588 243.187 353.198C242.851 346.809 247.634 340.926 253.392 338.884C253.691 340.176 254.026 341.317 254.39 342.321L251.923 332.337Z" fill="#C6DAFF"/>
<path d="M244.546 302.485L274.08 422.005L336.841 428.592L398.76 399.751L422.493 350.192L397.123 220.621L369.519 276.181L312.109 310.867L244.546 302.485Z" fill="#FF97C8"/>
<path d="M212.673 374.951C227.492 375.69 236.196 367.077 241.182 363.411C243.727 361.539 243.523 359.588 243.187 353.198C242.851 346.809 247.634 340.926 253.392 338.884C255.33 347.26 258.786 349.253 261.652 349.236C264.517 349.219 269.581 332.771 278.773 334.113C287.963 335.455 293.774 348.587 294.206 354.833C294.638 361.08 286.459 377.668 277.427 388.883C268.396 400.1 255.945 413.815 231.618 415.472C207.292 417.129 195.394 403.288 189.606 386.987C187.653 381.485 187.644 374.228 188.737 366.289C188.737 366.289 193.142 373.978 212.673 374.951Z" fill="#E1EBFF"/>
<path d="M405.86 265.244C405.86 265.244 407.5 274.792 405.135 278.124C402.771 281.455 399.8 284.09 397.307 288.411C394.814 292.733 395.4 310.375 403.39 314.425C411.38 318.475 419.309 311.605 422.096 307.398C424.883 303.193 425.189 291.237 422.977 282.594C420.765 273.951 415.549 265.845 405.86 265.244Z" fill="#E1EBFF"/>
<path d="M289.62 181.074C285.388 180.528 280.438 180.435 275.188 180.901C260.97 182.163 249.654 187.073 248.97 192.1L248.963 192.15C248.933 192.396 248.929 192.642 248.951 192.888C249.255 196.324 254.63 198.882 262.457 199.893C266.689 200.439 271.639 200.533 276.889 200.066C291.849 198.738 303.596 193.371 303.126 188.078C302.821 184.643 297.447 182.084 289.62 181.074Z" fill="#344F90"/>
<path d="M270.702 353.862C267.657 353.469 258.002 364.312 259.425 367.685C260.846 371.058 268.914 382.598 278.824 387.09L278.826 387.091C282.993 381.157 288.629 371.455 288.629 371.455C288.629 371.455 273.747 354.255 270.702 353.862Z" fill="#C6DAFF"/>
<path d="M331.246 299.305L312.109 310.867L312.11 310.867L331.246 299.305Z" fill="#E1BCE4"/>
<path d="M369.52 276.181L331.246 299.305L312.11 310.867L336.841 428.592L398.76 399.751L369.52 276.181Z" fill="#FF77B3"/>
<path d="M396.905 492.854L396.905 492.858C396.806 492.924 387.601 498.992 375.84 501.855C368.845 503.557 365.969 508.518 366.815 518.409C367.655 528.282 366.965 543.409 370.614 547.905C371.774 549.333 374.041 550.26 376.866 550.616C382.95 551.379 391.448 549.501 397.352 543.964C397.352 543.935 397.357 543.891 397.357 543.862C397.374 525.472 396.906 493.022 396.905 492.854Z" fill="#C6DAFF"/>
<path d="M449.033 425.682C453.879 439.313 455.333 453.966 458.045 473.609C451.708 444.051 449.269 426.286 449.033 425.682Z" fill="#E1EBFF"/>
<path d="M449.192 405.741C449.192 405.741 441.167 408.092 440.448 413.414L440.439 413.481C440.41 413.716 440.395 413.957 440.396 414.204C440.41 420.087 445.289 449.144 448.314 452.088C448.978 452.734 450.003 453.085 451.198 453.24C455.444 453.788 461.836 451.851 461.836 451.851C461.834 451.843 461.832 451.833 461.831 451.826C458.222 436.035 454.08 419.35 449.199 405.758C449.194 405.746 449.192 405.741 449.192 405.741Z" fill="#C6DAFF"/>
<path d="M395.892 94.3949L397.932 98.5269C398.183 99.0358 398.668 99.388 399.229 99.4699L403.79 100.132C405.204 100.338 405.768 102.076 404.745 103.074L401.446 106.29C401.039 106.686 400.854 107.256 400.95 107.816L401.728 112.357C401.97 113.765 400.492 114.839 399.226 114.174L395.148 112.03C394.647 111.766 394.046 111.766 393.544 112.03L389.466 114.174C388.201 114.839 386.723 113.765 386.964 112.357L387.743 107.816C387.838 107.256 387.653 106.686 387.247 106.29L383.947 103.074C382.924 102.076 383.489 100.338 384.903 100.132L389.463 99.4699C390.024 99.388 390.509 99.0358 390.76 98.5269L392.801 94.3949C393.433 93.1132 395.26 93.1132 395.892 94.3949Z" fill="#FDC172"/>
<path d="M193.196 500.253L194.904 503.715C195.116 504.142 195.521 504.438 195.993 504.506L199.813 505.061C200.999 505.234 201.472 506.69 200.614 507.526L197.849 510.22C197.509 510.552 197.353 511.031 197.434 511.5L198.087 515.305C198.289 516.485 197.05 517.386 195.99 516.828L192.572 515.031C192.152 514.81 191.649 514.81 191.227 515.031L187.81 516.828C186.75 517.386 185.511 516.485 185.714 515.305L186.367 511.5C186.447 511.031 186.292 510.552 185.951 510.22L183.186 507.526C182.329 506.69 182.802 505.234 183.987 505.061L187.808 504.506C188.278 504.438 188.685 504.142 188.896 503.715L190.604 500.253C191.135 499.18 192.666 499.18 193.196 500.253Z" fill="#FDC172"/>
<path d="M532.774 260.502C531.799 265.213 534.547 276.233 540.693 275.754C546.839 275.275 546.31 262.943 542.053 258.243C537.796 253.543 533.425 257.361 532.774 260.502Z" fill="#F9D399"/>
<g opacity="0.5">
<path opacity="0.5" d="M539.582 166.602C538.738 166.837 537.968 167.237 537.389 167.736C534.52 170.205 531.097 177.176 532.283 181.677L532.33 181.847C532.667 182.993 533.316 183.968 534.365 184.653C535.437 185.352 536.594 185.471 537.748 185.163L537.858 185.133C542.223 183.867 546.52 176.569 546.121 171.603C545.734 166.788 542.28 165.851 539.582 166.602Z" fill="#F9E499"/>
</g>
<g opacity="0.5">
<path opacity="0.5" d="M120.058 515.839C117.053 515.881 114.392 516.837 113.401 519.33C113.193 519.853 113.098 520.369 113.102 520.875L113.103 520.918C113.186 525.207 120.374 528.697 125.907 528.62C126.84 528.607 127.726 528.493 128.523 528.264C131.696 527.352 132.809 525.395 132.791 523.451L132.79 523.409C132.758 521.634 131.786 519.874 130.581 518.939C128.435 517.272 123.958 515.785 120.058 515.839Z" fill="#D1DBFB"/>
</g>
<path d="M93.0284 457.106C86.4578 443.23 108.298 428.595 126.796 429.804C145.295 431.012 152.927 448.127 159.428 454.538C173.006 467.926 172.482 480.919 162.973 486.446C153.465 491.973 101.721 475.461 93.0284 457.106Z" fill="#F9BC99"/>
<path d="M156.154 450.711C157.302 452.191 158.38 453.504 159.429 454.538C163.201 458.257 165.884 461.946 167.589 465.452C164.19 457.184 156.154 450.711 156.154 450.711Z" fill="#FBE2BD"/>
<path d="M156.153 450.711C149.451 451.92 150.486 457.914 152.594 463.353C153.816 466.506 156.856 468.374 160.242 468.426L160.39 468.427C162.803 468.425 165.38 467.503 167.596 465.469C167.593 465.463 167.59 465.457 167.588 465.451C165.883 461.945 163.2 458.257 159.428 454.538C158.38 453.504 157.301 452.191 156.153 450.711" fill="#F47272"/>
<path d="M119.492 441.319L119.385 441.318C118.87 441.317 118.327 441.348 117.752 441.408C112.951 441.906 109 448.815 112.336 454.467C115.193 459.306 120.307 463.037 124.038 463.064C124.666 463.068 125.253 462.968 125.785 462.751C129.48 461.242 130.153 452.958 127.531 447.618C125.259 442.99 123.042 441.36 119.492 441.319Z" fill="#F47272"/>
<path d="M473.819 254.244C467.035 251.932 463.719 229.299 473.524 219.647C483.33 209.995 500.111 209.23 506.623 216.178C513.134 223.125 487.72 258.981 473.819 254.244Z" fill="#F9D399"/>
<path d="M492.111 216.972C491.716 217.135 491.354 217.352 491.046 217.611C488.928 219.384 487.55 223.033 488.932 225.784C490.217 228.343 493.339 229.786 495.822 228.798L495.913 228.76C496.069 228.694 496.221 228.619 496.37 228.533C498.642 227.228 499.28 222.908 498.082 219.938L498.045 219.848C497.906 219.517 497.744 219.204 497.558 218.914C496.06 216.578 493.782 216.285 492.111 216.972Z" fill="#F48972"/>
<path d="M467.563 233.779C466.937 237.139 467.465 241.167 467.912 243.58C467.371 240.535 467.217 237.135 467.563 233.779Z" fill="#FBEABD"/>
<path d="M467.569 233.748C467.567 233.758 467.565 233.769 467.563 233.779C467.217 237.135 467.372 240.534 467.913 243.58C468.155 244.884 468.373 245.716 468.373 245.716C468.373 245.716 468.487 245.677 468.682 245.598L468.796 245.551C470.122 244.996 474.068 243.043 473.249 239.708C473.178 239.418 473.087 239.139 472.98 238.87L472.925 238.737C471.507 235.394 467.569 233.748 467.569 233.748Z" fill="#F48972"/>
</svg>
