<svg width="1440" height="801" viewBox="0 0 1440 801" fill="none" xmlns="http://www.w3.org/2000/svg">
<path d="M-7 808H1540.9V0H-7V808Z" fill="#10171E"/>
<g opacity="0.2">
<path opacity="0.2" d="M354.235 494.695C374.303 490.953 367.881 459.52 398.385 473.74C428.889 487.96 470.126 510.719 493.107 502.928C519.597 493.947 552.509 487.96 538.06 527.625C524.378 565.184 589.434 583.756 665.694 577.02C741.953 570.284 683.354 598.724 652.047 615.937C620.741 633.15 551.706 648.118 521.202 624.17C490.699 600.221 465.012 538.851 400.793 527.625C336.575 516.399 258.71 489.457 276.37 474.488C294.03 459.52 331.572 498.921 354.235 494.695Z" fill="#2C0F53"/>
</g>
<g opacity="0.2">
<path opacity="0.2" d="M399.991 498.438C408.018 499.186 409.462 503.344 431.297 497.689C445.746 493.947 444.943 458.024 456.984 452.037C479.826 440.679 481.066 476.734 488.291 504.425C493.511 524.433 497.924 550.078 515.584 548.581C543.609 546.205 561.339 538.103 589.435 548.581C617.53 559.058 581.479 606.174 658.103 613.301C734.728 620.428 679.34 646.622 640.809 639.886C602.278 633.151 579.802 622.673 568.564 606.208C557.325 589.743 519.597 602.466 500.332 588.246C481.066 574.027 479.461 532.864 448.154 529.871C416.848 526.877 418.453 530.619 404.807 523.135C391.161 515.651 368.031 495.458 399.991 498.438Z" fill="#2C0F53"/>
</g>
<g opacity="0.2">
<path opacity="0.2" d="M351.024 438.565C371.895 479.728 384.264 455.779 400.793 455.779C416.848 455.779 434.269 488.83 454.576 486.463C480.264 483.47 489.094 507.418 482.672 531.367C480.264 540.348 501.937 577.769 538.863 572.53C575.788 567.291 596.659 595.73 595.856 609.202C595.054 622.673 583.815 633.15 570.169 627.912C557.55 623.067 591.843 604.711 566.155 598.724C540.468 592.737 466.617 591.24 459.393 564.297C452.168 537.355 480.188 520.242 459.393 506.67C435.311 490.953 431.297 511.161 408.018 485.715C393.572 469.924 350.685 492.836 338.983 461.017C329.351 434.823 343.861 424.437 351.024 438.565Z" fill="#2C0F53"/>
</g>
<g opacity="0.2">
<path opacity="0.2" d="M783.357 403.325C736.779 389.644 747.228 414.375 735.999 425.684C725.093 436.669 687.244 426.136 675.312 441.637C660.219 461.246 635.37 451.019 620.882 430.357C615.448 422.608 571.271 412.018 550.31 440.841C529.35 469.664 492.788 464.625 482.73 454.924C472.671 445.224 472.058 430.417 485.452 424.639C497.836 419.297 488.99 455.229 511.153 441.72C533.314 428.213 584.66 378.701 610.774 392.06C636.89 405.419 631.325 436.214 656.135 431.206C684.865 425.406 671.685 408.933 707.528 410.291C729.77 411.134 740.869 366.227 773.864 379.835C801.025 391.038 799.343 408.021 783.357 403.325Z" fill="#2C0F53"/>
</g>
<g opacity="0.2">
<path opacity="0.2" d="M426.481 520.89C432.902 509.664 457.787 530.619 477.855 531.368C489.626 531.807 491.502 526.877 500.332 523.135C509.162 519.393 521.203 527.625 511.57 548.581C501.937 569.536 512.373 578.517 531.638 574.775C550.903 571.033 565.876 574.458 549.62 583.082C535.652 590.492 522.005 590.491 504.345 588.246C490.455 586.481 478.658 576.272 484.277 565.794C489.896 555.316 481.406 548.437 472.236 545.587C452.971 539.6 420.903 530.639 426.481 520.89Z" fill="#05134F"/>
</g>
<g opacity="0.2">
<path opacity="0.2" d="M430.494 464.759C424.137 441.054 407.215 439.314 389.555 440.81C365.558 442.845 346.208 463.263 321.323 449.791C295.798 435.974 290.82 398.151 318.112 395.158C325.375 394.361 328.251 386.903 306.071 380.938C291.175 376.932 277.173 401.145 290.82 437.817C302.934 470.372 331.44 486.382 363.709 475.196C395.977 464.011 399.188 482.721 395.977 493.947C392.766 505.173 404.807 543.342 442.535 535.858C480.263 528.374 489.134 549.289 491.923 575.13C494.713 600.969 511.57 609.202 528.427 603.963C545.284 598.724 570.478 565.132 600.425 593.903C630.374 622.673 632.782 565.794 582.21 548.581C531.638 531.367 526.019 531.367 529.23 509.664C532.441 487.96 464.45 492.644 446.67 488.057C428.889 483.47 432.902 473.74 430.494 464.759Z" fill="#2C0F53"/>
</g>
<g opacity="0.2">
<path opacity="0.2" d="M16.2865 303.104C-5.38712 307.594 7.45653 275.413 30.7356 255.206C52.3066 236.482 66.8584 221.528 107.798 231.257C148.737 240.986 159.172 292.626 152.75 310.588C146.329 328.55 149.539 374.202 181.649 367.467C213.758 360.731 227.404 402.642 218.574 421.352C209.744 440.062 236.234 448.294 251.486 443.056C266.738 437.817 267.54 464.011 246.67 472.243C225.799 480.476 174.424 476.734 174.424 439.314C174.424 401.893 124.655 415.365 101.376 392.913C78.0966 370.46 88.5321 341.273 88.5321 314.33C88.5321 287.387 56.8099 285.64 48.3957 288.136C30.7356 293.375 22.5558 301.805 16.2865 303.104Z" fill="#05134F"/>
</g>
<g opacity="0.2">
<path opacity="0.2" d="M49.1985 246.974C72.9039 249.206 140.71 271.671 119.036 310.588C97.3622 349.505 178.438 327.801 204.928 330.046C231.418 332.291 220.982 353.996 197.703 379.441C174.424 404.887 209.744 462.514 253.894 458.772C298.044 455.03 346.075 430.988 384.672 433.279C423.27 435.572 423.75 483.006 393.809 487.354C363.868 491.702 378.79 483.532 386.18 474.894C393.569 466.256 364.671 444.553 327.745 472.992C290.82 501.431 201.717 509.664 168.002 489.457C134.288 469.25 120.641 429.584 135.893 392.164C151.145 354.744 51.6067 380.19 41.1712 351.002C30.7358 321.814 87.7295 303.852 73.2804 290.381C58.8312 276.91 -30.2716 239.49 49.1985 246.974Z" fill="#2C0F53"/>
</g>
<g opacity="0.2">
<path opacity="0.2" d="M85.4761 561.584C79.1088 630.182 26.9026 515.543 50.6024 485.904C86.8038 440.632 61.6375 436.464 48.6951 419.645C35.7535 402.825 8.61567 365.329 40.659 332.608C72.7023 299.887 52.9006 284.951 44.9809 277.368C28.7015 261.782 18.4892 206.871 95.4644 271.675C172.439 336.479 154.299 358.303 147.594 369.782C140.888 381.26 154.145 403.363 188.326 408.374C222.508 413.385 249.746 441.124 215.925 466.941C182.105 492.758 111.893 463.188 99.0101 502.58C87.7598 536.979 87.206 542.945 85.4761 561.584Z" fill="#2C0F53"/>
</g>
<g opacity="0.2">
<path opacity="0.2" d="M129.791 535.654C133.116 582.846 84.8885 510.068 97.6759 487.647C117.209 453.402 99.6563 453.009 88.9944 442.844C78.3318 432.678 55.7262 409.849 73.8349 384.527C91.9437 359.205 76.8331 350.983 70.6104 346.602C57.8197 337.596 44.7641 301.303 104.253 337.844C163.741 374.386 153.858 390.961 150.585 399.404C147.312 407.848 158.777 421.57 182.544 421.661C206.311 421.751 227.896 437.945 207.812 458.751C187.728 479.558 136.758 466.285 132.403 494.28C128.599 518.725 128.888 522.829 129.791 535.654Z" fill="#2C0F53"/>
</g>
<g opacity="0.2">
<path opacity="0.2" d="M59.8314 371.853C80.4487 381 124.035 375.104 127.17 391.582C130.305 408.06 115.818 416.234 117.354 431.209C118.891 446.183 126.07 455.94 131.661 461.951C137.253 467.96 121.181 471.638 112.382 464.867C103.583 458.096 84.3941 441.554 92.5217 419.882C100.649 398.211 74.9725 395.863 59.7415 391.311C44.5105 386.759 34.9613 368.759 40.6077 362.795C46.254 356.83 46.2131 365.811 59.8314 371.853Z" fill="#05134F"/>
</g>
<g opacity="0.2">
<path opacity="0.2" d="M111.009 327.801C81.0009 338.992 61.2394 357.737 86.1239 392.913C111.009 428.088 123.049 441.559 144.723 443.056C166.397 444.552 126.26 392.913 183.254 398.151C240.248 403.39 313.296 396.655 256.302 383.183C199.309 369.712 188.873 356.989 221.785 357.737C254.697 358.486 233.023 332.292 199.309 314.33C165.594 296.368 126.26 260.445 165.594 256.703C204.928 252.961 112.614 220.031 98.1649 240.986C83.7158 261.942 115.492 288.339 125.693 299.837C135.893 311.336 127.063 321.814 111.009 327.801Z" fill="#2C0F53"/>
</g>
<g opacity="0.2">
<path opacity="0.2" d="M1071.87 107.022C1062.86 75.6616 1144.12 154.92 1204.32 181.863C1264.53 208.805 1247.67 142.945 1220.38 112.261C1193.09 81.5762 1237.24 55.3821 1363.26 98.7896C1489.29 142.197 1482.07 173.63 1424.27 166.894C1366.48 160.159 1281.39 101.035 1307.88 148.184C1334.37 195.334 1334.66 257.898 1260.66 253.558C1186.66 249.219 1076.69 181.863 1000.43 181.863C924.172 181.863 920.158 199.824 933.002 214.792C945.846 229.76 887.247 220.78 895.274 190.095C903.301 159.41 965.111 148.933 999.629 154.92C1034.15 160.907 1092.75 179.617 1071.87 107.022Z" fill="#05134F"/>
</g>
<g opacity="0.2">
<path opacity="0.2" d="M1275.56 84.0226C1302.57 107.85 1295.85 139.373 1284.22 165.322C1272.59 191.271 1232.58 211.644 1176.04 188.498C1119.51 165.353 1076.31 118.435 1027.28 118.204C978.257 117.972 929.798 129.703 914.136 172.299C898.473 214.894 945.382 232.103 957.275 234.95C975.967 239.426 1060.21 236.711 1038.46 201.647C1016.71 166.582 1056.08 166.462 1063.07 195.391C1070.07 224.319 1062.19 278.581 1105.6 279.044C1149.01 279.506 1309.35 254.934 1375.21 186.302C1441.06 117.67 1316.74 139.264 1370.93 95.8325C1425.12 52.4025 1377.56 49.114 1342.5 72.2809C1307.43 95.447 1299.85 43.1897 1258.96 39.0083C1170.15 29.9242 1250.4 61.8339 1275.56 84.0226Z" fill="#05134F"/>
</g>
<g opacity="0.2">
<path opacity="0.2" d="M1009.26 150.429C1028.13 118.851 1056.62 79.3309 1116.02 92.8022C1175.43 106.274 1201.11 170.636 1245.26 142.945C1289.41 115.254 1298.76 102.76 1318.97 85.4327C1339.18 68.1049 1437.58 8.14265 1377.14 130.926C1316.71 253.709 1169 256.703 1138.5 231.257C1108 205.811 1087.93 154.171 1066.26 164.649C1044.58 175.127 977.955 202.818 1009.26 150.429Z" fill="#05134F"/>
</g>
<g opacity="0.2">
<path opacity="0.2" d="M1169 92.8022C1193.36 55.6477 1216.37 101.783 1224.39 133.964C1232.42 166.146 1254.9 167.643 1278.98 148.184C1303.06 128.726 1329.72 149.186 1283.88 211.551C1238.04 273.916 1173.02 229.012 1156.96 184.108C1148.82 161.343 1151.34 119.745 1169 92.8022Z" fill="#05134F"/>
</g>
<g opacity="0.2">
<path opacity="0.2" d="M1133.68 72.5952C1114.89 87.0679 1095.96 140.7 1115.22 178.869C1134.49 217.037 1194.38 228.718 1238.84 211.05C1287.81 191.592 1217.97 191.592 1188.27 185.604C1163.63 180.638 1143.32 152.675 1152.15 120.493C1160.98 88.3117 1152.15 58.3755 1133.68 72.5952Z" fill="#05134F"/>
</g>
<g opacity="0.2">
<path opacity="0.2" d="M1330.35 36.6719C1365.6 6.71321 1356.84 56.1304 1370.49 86.0666C1384.14 116.003 1429.09 43.4075 1457.18 50.8916C1485.28 58.3756 1421.06 133.216 1476.45 145.939C1531.84 158.662 1484.48 208.057 1433.1 211.799C1381.73 215.541 1357.2 189.159 1318.09 227.047C1278.98 264.935 1215.56 261.942 1192.28 239.49C1169 217.037 1157.77 195.334 1210.75 213.295C1263.73 231.257 1297.09 180.836 1293.25 143.18C1289.41 105.525 1303.06 59.8724 1330.35 36.6719Z" fill="#05134F"/>
</g>
<g opacity="0.2">
<path opacity="0.2" d="M1006.18 189.54C991.304 206.387 961.408 207.132 955.858 164.572C950.309 122.013 918.418 136.005 899.222 134.482C880.025 132.958 883.04 91.1348 934.841 88.487C986.644 85.8391 1063.31 84.4127 1101.92 76.2109C1140.54 68.0099 1236.74 99.6816 1146.46 109.04C1056.18 118.398 1178.48 116.83 1197.54 143.51C1216.6 170.19 1162.89 227.14 1112.01 202.07C1061.13 177 1024.15 169.184 1006.18 189.54Z" fill="#05134F"/>
</g>
<g opacity="0.2">
<path opacity="0.2" d="M795.736 397.403C803.177 354.391 812.593 343.518 851.927 351.75C891.26 359.983 934.608 345.763 961.098 324.059C987.588 302.356 1020.5 351.75 961.098 388.422C901.696 425.094 889.655 452.037 881.628 497.689C873.6 543.342 815.804 558.31 769.246 553.82C722.687 549.329 806.974 507.418 805.368 461.017C803.763 414.616 791.722 420.604 795.736 397.403Z" fill="#2C0F53"/>
</g>
<g opacity="0.2">
<path opacity="0.2" d="M821.423 414.616C812.747 385.94 821.423 368.964 840.688 371.957C859.954 374.951 893.668 386.177 923.369 365.222C953.07 344.266 1007.66 351.002 978.758 370.46C949.859 389.919 871.357 395.877 868.465 449.028C865.573 502.18 826.239 541.845 805.368 539.6C784.497 537.355 830.253 443.804 821.423 414.616Z" fill="#2C0F53"/>
</g>
<g opacity="0.2">
<path opacity="0.2" d="M762.021 461.018C759.677 415.117 783.106 408.766 799.856 421.046C816.607 433.327 804.566 389.919 806.171 374.951C807.777 359.983 823.831 362.976 859.151 369.712C894.471 376.448 901.696 341.273 953.873 324.059C1006.05 306.846 1001.23 352.499 962.703 369.712C924.172 386.925 900.579 373.709 891.103 435.7C881.627 497.689 786.906 582.259 721.082 569.536C655.258 556.813 648.837 502.928 675.327 511.909C701.817 520.89 701.014 550.826 733.926 532.864C766.838 514.903 762.824 476.734 762.021 461.018Z" fill="#2C0F53"/>
</g>
<g opacity="0.2">
<path opacity="0.2" d="M852.426 396.718C820.965 410.291 845.547 452.92 827.548 479.897C809.549 506.873 744.705 498.251 716.521 500.404C688.337 502.558 619.021 526.806 643.366 556.642C667.709 586.478 718.899 573.209 718.609 560.292C718.319 547.375 674.431 529.541 733.792 523.917C793.154 518.294 834.197 541.994 852.196 515.018C870.195 488.042 861.608 451.48 870.306 430.8C879.005 410.119 877.163 386.045 852.426 396.718Z" fill="#2C0F53"/>
</g>
<g opacity="0.2">
<path opacity="0.2" d="M483.474 381.687C515.273 402.971 538.863 445.301 559.733 419.107C580.604 392.913 621.578 360.048 657.683 375.358C693.789 390.668 763.626 412.371 798.946 368.215C834.266 324.059 885.781 292.406 859.622 395.796C833.464 499.187 715.463 481.973 694.592 463.263C673.721 444.553 648.836 422.849 616.727 436.32C584.618 449.791 550.101 490.205 507.556 464.011C465.012 437.817 452.168 360.731 483.474 381.687Z" fill="#05134F"/>
</g>
<g opacity="0.2">
<path opacity="0.2" d="M194.492 357.738C176.215 344.958 239.445 342.769 245.867 356.241C252.289 369.712 244.261 407.881 269.146 415.365C294.031 422.849 328.548 412.371 357.446 410.126C386.344 407.881 415.243 407.132 393.569 443.056C371.895 478.979 379.922 496.192 408.018 486.463C436.113 476.734 412.834 517.896 368.684 513.406C324.534 508.915 304.422 485.209 334.145 464.506C363.868 443.804 301.255 459.521 282.792 458.024C264.33 456.527 203.322 452.037 215.363 419.855C227.404 387.674 220.18 375.699 194.492 357.738Z" fill="#05134F"/>
</g>
<g opacity="0.2">
<path opacity="0.2" d="M1082.31 204.315C1039.3 167.205 1022.2 106.451 1074.73 144.531C1127.26 182.611 1200.9 180.944 1225.89 139.119C1250.88 97.2927 1409.02 63.6145 1329.55 112.261C1250.08 160.907 1384.94 127.229 1407.41 93.5507C1429.89 59.8725 1283.79 35.1751 1224.39 87.5634C1164.99 139.952 1094.35 118.996 1067.06 112.261C1039.77 105.525 940.227 89.8086 973.941 145.939C1007.66 202.069 1136.09 250.716 1082.31 204.315Z" fill="#2C0F53"/>
</g>
<g opacity="0.2">
<path opacity="0.2" d="M769.246 101.035C789.364 88.1397 867.179 65.8597 883.233 100.286C899.288 134.713 880.022 165.398 907.315 166.894C934.608 168.391 887.247 224.522 855.94 208.805C824.634 193.089 839.886 133.216 782.892 127.977C725.898 122.738 756.402 109.267 769.246 101.035Z" fill="#2C0F53"/>
</g>
<g opacity="0.2">
<path opacity="0.2" d="M806.171 122.738C819.015 112.261 855.94 98.7895 864.77 120.493C873.6 142.197 850.321 171.385 879.219 180.366C908.118 189.346 957.084 187.101 941.832 199.076C926.58 211.05 892.665 232.044 847.01 203.586C801.355 175.128 778.878 158.662 806.171 122.738Z" fill="#2C0F53"/>
</g>
<g opacity="0.2">
<path opacity="0.2" d="M840.663 148.781C859.954 121.242 897.682 105.526 935.41 130.972C973.139 156.417 893.668 148.933 869.587 190.096C845.505 231.258 798.093 197.276 840.663 148.781Z" fill="#2C0F53"/>
</g>
<g opacity="0.2">
<path opacity="0.2" d="M1406.61 642.88C1505.35 678.803 1508.56 743.914 1426.68 734.934C1344.8 725.953 1319.92 654.854 1250.88 688.532C1181.85 722.211 1096.76 789.567 1062.24 765.618C1027.72 741.669 1179.16 656.718 1275.77 640.634C1343.2 629.408 1382.58 634.135 1406.61 642.88Z" fill="#2C0F53"/>
</g>
<g opacity="0.2">
<path opacity="0.2" d="M1164.19 682.545C1129.08 711.644 1108.8 752.147 1146.53 752.147C1184.26 752.147 1241.25 702.752 1278.98 702.752C1316.71 702.752 1300.65 744.663 1402.6 756.637C1504.54 768.612 1525.42 710.236 1523.01 636.144C1520.6 562.052 1503.74 520.89 1463.61 606.956C1423.47 693.023 1362.46 648.119 1311.89 647.37C1261.32 646.622 1185.86 664.584 1164.19 682.545Z" fill="#2C0F53"/>
</g>
<g opacity="0.2">
<path opacity="0.2" d="M1204.32 698.262C1231.19 655.868 1276.57 645.125 1313.5 670.571C1350.42 696.017 1382.53 684.042 1400.19 677.306C1417.85 670.571 1462 675.81 1453.17 698.262C1444.34 720.714 1489.29 715.475 1501.33 690.778C1513.37 666.08 1545.48 719.965 1501.33 746.16C1457.18 772.354 1376.91 757.386 1350.42 735.682C1323.93 713.978 1281.39 675.061 1254.09 690.778C1226.8 706.494 1193.89 714.727 1204.32 698.262Z" fill="#2C0F53"/>
</g>
<g opacity="0.2">
<path opacity="0.2" d="M1195.92 711.149C1180.81 727.497 1177.59 755.968 1238.22 732.483C1298.85 708.999 1317.87 734.418 1332.37 753.819C1346.86 773.22 1396.91 786.997 1445.94 764.267C1494.97 741.536 1518.45 696.895 1467.49 716.224C1416.54 735.553 1361.34 696.439 1346.27 685.707C1331.21 674.974 1287.89 666.283 1258.91 675.572C1229.92 684.86 1207.59 698.525 1195.92 711.149Z" fill="#05134F"/>
</g>
<g opacity="0.2">
<path opacity="0.2" d="M1234.86 753.899C1207.97 797.243 1272.62 733.04 1350.36 734.866C1428.1 736.694 1396.98 672.13 1444.78 630.797C1492.58 589.463 1477.49 559.148 1394.85 623.295C1312.21 687.441 1389.24 679.305 1344.6 697.615C1299.97 715.925 1258.53 715.762 1234.86 753.899Z" fill="#05134F"/>
</g>
<g opacity="0.2">
<path opacity="0.2" d="M512.08 644.686C558.154 647.377 480.403 625.593 452.129 569.128C423.856 512.663 382.497 559.719 330.075 541.266C277.654 522.812 258.417 545.247 343.011 579.954C427.605 614.66 391.385 562.526 423.593 587.528C455.8 612.53 471.542 642.318 512.08 644.686Z" fill="#05134F"/>
</g>
<g opacity="0.2">
<path opacity="0.2" d="M495.076 636.096C533.821 638.358 468.438 620.04 444.661 572.556C420.885 525.072 386.104 564.643 342.021 549.125C297.937 533.607 281.759 552.473 352.899 581.66C424.038 610.846 393.578 567.004 420.663 588.029C447.748 609.055 460.985 634.105 495.076 636.096Z" fill="#05134F"/>
</g>
<g opacity="0.2">
<path opacity="0.2" d="M1514.98 340.524C1519.24 369.527 1464.41 433.326 1501.33 487.212C1522.6 518.243 1498.93 565.046 1476.45 580.762C1453.97 596.479 1413.84 624.17 1436.31 649.615C1458.79 675.061 1467.62 665.332 1495.71 678.803C1523.81 692.275 1502.87 652.408 1484.48 627.163C1466.09 601.919 1520.6 615.937 1535.05 568.039C1549.5 520.141 1555.05 456.054 1535.05 430.333C1511.77 400.397 1547.09 363.725 1543.88 347.26C1540.67 330.795 1498.93 231.257 1514.98 340.524Z" fill="#2C0F53"/>
</g>
<g opacity="0.6">
<path d="M875.758 47.8937C871.982 47.8937 868.852 50.8214 868.289 54.6518C867.721 50.8214 864.591 47.8937 860.814 47.8937C864.591 47.8937 867.721 44.9661 868.289 41.14C868.852 44.9661 871.982 47.8937 875.758 47.8937Z" fill="#5DEAF4"/>
<path d="M547.055 151.77C542.64 151.77 538.982 155.193 538.322 159.67C537.659 155.193 534.001 151.77 529.586 151.77C534.001 151.77 537.659 148.348 538.322 143.875C538.982 148.348 542.64 151.77 547.055 151.77Z" fill="#5DEAF4"/>
<path d="M182.482 58.4186C178.497 58.4186 175.195 61.5072 174.601 65.5486C174.002 61.5072 170.7 58.4186 166.715 58.4186C170.7 58.4186 174.002 55.33 174.601 51.2928C175.195 55.33 178.497 58.4186 182.482 58.4186Z" fill="#5DEAF4"/>
<path d="M516.987 68.1311C513.35 68.1311 510.336 70.9507 509.793 74.6392C509.246 70.9507 506.232 68.1311 502.594 68.1311C506.232 68.1311 509.246 65.3114 509.793 61.6271C510.336 65.3114 513.35 68.1311 516.987 68.1311Z" fill="#5DEAF4"/>
<path d="M507.883 96.1089C503.023 96.1089 498.997 99.8758 498.271 104.804C497.541 99.8758 493.514 96.1089 488.654 96.1089C493.514 96.1089 497.541 92.3428 498.271 87.4199C498.997 92.3428 503.023 96.1089 507.883 96.1089Z" fill="#5DEAF4"/>
<path d="M892.272 107.951C888.524 107.951 885.418 110.857 884.859 114.658C884.295 110.857 881.19 107.951 877.441 107.951C881.19 107.951 884.295 105.046 884.859 101.249C885.418 105.046 888.524 107.951 892.272 107.951Z" fill="#5DEAF4"/>
<path d="M1249.27 82.1291C1245.91 82.1291 1243.13 84.7307 1242.63 88.1333C1242.12 84.7307 1239.34 82.1291 1235.99 82.1291C1239.34 82.1291 1242.12 79.5283 1242.63 76.1292C1243.13 79.5283 1245.91 82.1291 1249.27 82.1291Z" fill="#5DEAF4"/>
<path d="M1270.48 673.804C1267.25 673.804 1264.57 676.309 1264.09 679.584C1263.61 676.309 1260.93 673.804 1257.7 673.804C1260.93 673.804 1263.61 671.299 1264.09 668.026C1264.57 671.299 1267.25 673.804 1270.48 673.804Z" fill="#5DEAF4"/>
<path d="M770.619 525.251C767.611 525.251 765.118 527.583 764.669 530.633C764.217 527.583 761.725 525.251 758.717 525.251C761.725 525.251 764.217 522.921 764.669 519.874C765.118 522.921 767.611 525.251 770.619 525.251Z" fill="#5DEAF4"/>
<path d="M821.265 565.239C818.747 565.239 816.662 567.189 816.286 569.742C815.908 567.189 813.823 565.239 811.305 565.239C813.823 565.239 815.908 563.287 816.286 560.738C816.662 563.287 818.747 565.239 821.265 565.239Z" fill="#5DEAF4"/>
<path d="M818.977 420.002C816.46 420.002 814.375 421.953 813.999 424.505C813.621 421.953 811.535 420.002 809.019 420.002C811.535 420.002 813.621 418.051 813.999 415.502C814.375 418.051 816.46 420.002 818.977 420.002Z" fill="#5DEAF4"/>
<path d="M1083.46 487.167C1080.85 487.167 1078.68 489.196 1078.29 491.85C1077.89 489.196 1075.73 487.167 1073.11 487.167C1075.73 487.167 1077.89 485.138 1078.29 482.487C1078.68 485.138 1080.85 487.167 1083.46 487.167Z" fill="#5DEAF4"/>
<path d="M927.096 471.316C924.478 471.316 922.309 473.344 921.919 475.999C921.526 473.344 919.358 471.316 916.74 471.316C919.358 471.316 921.526 469.287 921.919 466.636C922.309 469.287 924.478 471.316 927.096 471.316Z" fill="#5DEAF4"/>
<path d="M1425.53 359.554C1422.91 359.554 1420.74 361.583 1420.35 364.237C1419.96 361.583 1417.79 359.554 1415.17 359.554C1417.79 359.554 1419.96 357.525 1420.35 354.874C1420.74 357.525 1422.91 359.554 1425.53 359.554Z" fill="#5DEAF4"/>
<path d="M1125.2 503.112C1121.94 503.112 1119.25 505.635 1118.76 508.936C1118.27 505.635 1115.58 503.112 1112.32 503.112C1115.58 503.112 1118.27 500.59 1118.76 497.293C1119.25 500.59 1121.94 503.112 1125.2 503.112Z" fill="#5DEAF4"/>
<path d="M1378.92 366.14C1375.57 366.14 1372.79 368.742 1372.28 372.144C1371.78 368.742 1369 366.14 1365.65 366.14C1369 366.14 1371.78 363.539 1372.28 360.141C1372.79 363.539 1375.57 366.14 1378.92 366.14Z" fill="#5DEAF4"/>
<path d="M1447.26 312.226C1444.78 312.226 1442.72 314.147 1442.35 316.66C1441.98 314.147 1439.93 312.226 1437.45 312.226C1439.93 312.226 1441.98 310.305 1442.35 307.794C1442.72 310.305 1444.78 312.226 1447.26 312.226Z" fill="#5DEAF4"/>
<path d="M145.178 163.215C141.499 163.215 138.451 166.066 137.902 169.796C137.349 166.066 134.301 163.215 130.623 163.215C134.301 163.215 137.349 160.363 137.902 156.637C138.451 160.363 141.499 163.215 145.178 163.215Z" fill="#5DEAF4"/>
<path d="M121.594 231.399C117.64 231.399 114.366 234.464 113.775 238.472C113.181 234.464 109.905 231.399 105.951 231.399C109.905 231.399 113.181 228.334 113.775 224.33C114.366 228.334 117.64 231.399 121.594 231.399Z" fill="#5DEAF4"/>
<path d="M292.24 384.18C289.895 384.18 287.952 385.998 287.603 388.375C287.25 385.998 285.307 384.18 282.962 384.18C285.307 384.18 287.25 382.363 287.603 379.988C287.952 382.363 289.895 384.18 292.24 384.18Z" fill="#5DEAF4"/>
<path d="M367.386 381.711C363.433 381.711 360.157 384.776 359.567 388.784C358.973 384.776 355.696 381.711 351.742 381.711C355.696 381.711 358.973 378.646 359.567 374.641C360.157 378.646 363.433 381.711 367.386 381.711Z" fill="#5DEAF4"/>
<path d="M76.6703 316.673C72.7166 316.673 69.4411 319.739 68.8507 323.747C68.2572 319.739 64.9809 316.673 61.0272 316.673C64.9809 316.673 68.2572 313.609 68.8507 309.604C69.4411 313.609 72.7166 316.673 76.6703 316.673Z" fill="#5DEAF4"/>
<path d="M1419.47 641.275C1416.45 641.275 1413.95 643.614 1413.5 646.676C1413.05 643.614 1410.54 641.275 1407.53 641.275C1410.54 641.275 1413.05 638.935 1413.5 635.877C1413.95 638.935 1416.45 641.275 1419.47 641.275Z" fill="#5DEAF4"/>
<path d="M1448.58 662.928C1445.31 662.928 1442.61 665.46 1442.12 668.773C1441.63 665.46 1438.92 662.928 1435.65 662.928C1438.92 662.928 1441.63 660.395 1442.12 657.086C1442.61 660.395 1445.31 662.928 1448.58 662.928Z" fill="#5DEAF4"/>
<path d="M1383.43 688.09C1381.16 688.09 1379.29 689.844 1378.95 692.139C1378.61 689.844 1376.74 688.09 1374.47 688.09C1376.74 688.09 1378.61 686.336 1378.95 684.043C1379.29 686.336 1381.16 688.09 1383.43 688.09Z" fill="#5DEAF4"/>
<path d="M1054.61 696.635C1052.35 696.635 1050.48 698.391 1050.14 700.686C1049.8 698.391 1047.92 696.635 1045.66 696.635C1047.92 696.635 1049.8 694.882 1050.14 692.59C1050.48 694.882 1052.35 696.635 1054.61 696.635Z" fill="#5DEAF4"/>
<path d="M737.681 726.569C735.417 726.569 733.542 728.324 733.204 730.618C732.864 728.324 730.988 726.569 728.726 726.569C730.988 726.569 732.864 724.815 733.204 722.522C733.542 724.815 735.417 726.569 737.681 726.569Z" fill="#5DEAF4"/>
<path d="M720.13 713.57C717.867 713.57 715.992 715.325 715.654 717.619C715.314 715.325 713.438 713.57 711.175 713.57C713.438 713.57 715.314 711.816 715.654 709.523C715.992 711.816 717.867 713.57 720.13 713.57Z" fill="#5DEAF4"/>
<path d="M703.773 743.971C701.51 743.971 699.633 745.726 699.295 748.021C698.955 745.726 697.079 743.971 694.816 743.971C697.079 743.971 698.955 742.217 699.295 739.924C699.633 742.217 701.51 743.971 703.773 743.971Z" fill="#5DEAF4"/>
<path d="M135.205 617.151C132.942 617.151 131.066 618.905 130.728 621.2C130.388 618.905 128.512 617.151 126.25 617.151C128.512 617.151 130.388 615.396 130.728 613.104C131.066 615.396 132.942 617.151 135.205 617.151Z" fill="#5DEAF4"/>
<path d="M117.655 604.152C115.391 604.152 113.516 605.906 113.178 608.201C112.838 605.906 110.962 604.152 108.699 604.152C110.962 604.152 112.838 602.397 113.178 600.105C113.516 602.397 115.391 604.152 117.655 604.152Z" fill="#5DEAF4"/>
<path d="M101.297 634.553C99.0336 634.553 97.1573 636.307 96.8194 638.602C96.4791 636.307 94.6035 634.553 92.3402 634.553C94.6035 634.553 96.4791 632.799 96.8194 630.506C97.1573 632.799 99.0336 634.553 101.297 634.553Z" fill="#5DEAF4"/>
<path d="M260.918 516.464C258.655 516.464 256.779 518.218 256.441 520.513C256.102 518.218 254.226 516.464 251.963 516.464C254.226 516.464 256.102 514.709 256.441 512.417C256.779 514.709 258.655 516.464 260.918 516.464Z" fill="#5DEAF4"/>
<path d="M773.259 353.138C770.996 353.138 769.12 354.893 768.782 357.188C768.443 354.893 766.567 353.138 764.304 353.138C766.567 353.138 768.443 351.383 768.782 349.091C769.12 351.383 770.996 353.138 773.259 353.138Z" fill="#5DEAF4"/>
<path d="M990.342 367.059C988.079 367.059 986.203 368.814 985.865 371.109C985.525 368.814 983.649 367.059 981.387 367.059C983.649 367.059 985.525 365.305 985.865 363.012C986.203 365.305 988.079 367.059 990.342 367.059Z" fill="#5DEAF4"/>
<path d="M97.5665 337.912C95.3032 337.912 93.4268 339.667 93.0889 341.962C92.7486 339.667 90.8731 337.912 88.6097 337.912C90.8731 337.912 92.7486 336.158 93.0889 333.865C93.4268 336.158 95.3032 337.912 97.5665 337.912Z" fill="#5DEAF4"/>
<path d="M159.122 174.175C156.859 174.175 154.984 175.93 154.646 178.225C154.305 175.93 152.43 174.175 150.167 174.175C152.43 174.175 154.305 172.42 154.646 170.128C154.984 172.42 156.859 174.175 159.122 174.175Z" fill="#5DEAF4"/>
<path d="M472.015 71.3989C469.752 71.3989 467.875 73.1535 467.538 75.4487C467.197 73.1535 465.322 71.3989 463.058 71.3989C465.322 71.3989 467.197 69.6442 467.538 67.3518C467.875 69.6442 469.752 71.3989 472.015 71.3989Z" fill="#5DEAF4"/>
<path d="M916.104 106.824C913.841 106.824 911.965 108.579 911.627 110.873C911.287 108.579 909.412 106.824 907.149 106.824C909.412 106.824 911.287 105.069 911.627 102.776C911.965 105.069 913.841 106.824 916.104 106.824Z" fill="#5DEAF4"/>
<path d="M1423.06 75.4072C1420.8 75.4072 1418.92 77.1618 1418.58 79.457C1418.24 77.1618 1416.37 75.4072 1414.1 75.4072C1416.37 75.4072 1418.24 73.6525 1418.58 71.3601C1418.92 73.6525 1420.8 75.4072 1423.06 75.4072Z" fill="#5DEAF4"/>
<path d="M805.668 409.811C802.575 409.811 800.012 412.208 799.55 415.345C799.085 412.208 796.522 409.811 793.428 409.811C796.522 409.811 799.085 407.413 799.55 404.279C800.012 407.413 802.575 409.811 805.668 409.811Z" fill="#5DEAF4"/>
<path d="M812.026 398.404C809.13 398.404 806.73 400.649 806.297 403.586C805.862 400.649 803.462 398.404 800.567 398.404C803.462 398.404 805.862 396.158 806.297 393.225C806.73 396.158 809.13 398.404 812.026 398.404Z" fill="#5DEAF4"/>
<path d="M1291.24 444.264C1293.75 444.264 1295.84 442.313 1296.22 439.761C1296.59 442.313 1298.68 444.264 1301.2 444.264C1298.68 444.264 1296.59 446.216 1296.22 448.765C1295.84 446.216 1293.75 444.264 1291.24 444.264Z" fill="#5DEAF4"/>
<path d="M1304.55 454.456C1307.64 454.456 1310.2 452.058 1310.67 448.921C1311.13 452.058 1313.69 454.456 1316.79 454.456C1313.69 454.456 1311.13 456.853 1310.67 459.987C1310.2 456.853 1307.64 454.456 1304.55 454.456Z" fill="#5DEAF4"/>
<path d="M1298.19 465.863C1301.09 465.863 1303.49 463.618 1303.92 460.681C1304.35 463.618 1306.75 465.863 1309.65 465.863C1306.75 465.863 1304.35 468.107 1303.92 471.04C1303.49 468.107 1301.09 465.863 1298.19 465.863Z" fill="#5DEAF4"/>
<path d="M157.912 67.8064C155.016 67.8064 152.617 70.0508 152.184 72.9876C151.749 70.0508 149.35 67.8064 146.453 67.8064C149.35 67.8064 151.749 65.5612 152.184 62.6279C152.617 65.5612 155.016 67.8064 157.912 67.8064Z" fill="#5DEAF4"/>
<path d="M106.105 39.0085C103.209 39.0085 100.809 41.2536 100.377 44.1897C99.9413 41.2536 97.5419 39.0085 94.6462 39.0085C97.5419 39.0085 99.9413 36.7633 100.377 33.83C100.809 36.7633 103.209 39.0085 106.105 39.0085Z" fill="#5DEAF4"/>
<path d="M525.615 442.444C522.17 442.444 519.315 445.114 518.801 448.608C518.283 445.114 515.429 442.444 511.983 442.444C515.429 442.444 518.283 439.773 518.801 436.283C519.315 439.773 522.17 442.444 525.615 442.444Z" fill="#5DEAF4"/>
<path d="M542.877 472.025C540.9 472.025 539.261 473.557 538.966 475.562C538.668 473.557 537.03 472.025 535.053 472.025C537.03 472.025 538.668 470.492 538.966 468.489C539.261 470.492 540.9 472.025 542.877 472.025Z" fill="#5DEAF4"/>
<path d="M489.814 310.169C487.836 310.169 486.198 311.701 485.903 313.706C485.606 311.701 483.968 310.169 481.99 310.169C483.968 310.169 485.606 308.637 485.903 306.634C486.198 308.637 487.836 310.169 489.814 310.169Z" fill="#5DEAF4"/>
<path d="M468.806 246.08C466.828 246.08 465.19 247.612 464.895 249.617C464.598 247.612 462.96 246.08 460.982 246.08C462.96 246.08 464.598 244.548 464.895 242.545C465.19 244.548 466.828 246.08 468.806 246.08Z" fill="#5DEAF4"/>
<path d="M412.263 322.486C410.285 322.486 408.647 324.018 408.352 326.023C408.054 324.018 406.416 322.486 404.439 322.486C406.416 322.486 408.054 320.954 408.352 318.951C408.647 320.954 410.285 322.486 412.263 322.486Z" fill="#5DEAF4"/>
<path d="M446.22 351.287C444.243 351.287 442.604 352.819 442.31 354.824C442.012 352.819 440.374 351.287 438.397 351.287C440.374 351.287 442.012 349.755 442.31 347.752C442.604 349.755 444.243 351.287 446.22 351.287Z" fill="#5DEAF4"/>
<path d="M1139.61 261.923C1137.64 261.923 1136 263.455 1135.7 265.46C1135.41 263.455 1133.77 261.923 1131.79 261.923C1133.77 261.923 1135.41 260.391 1135.7 258.388C1136 260.391 1137.64 261.923 1139.61 261.923Z" fill="#5DEAF4"/>
<path d="M1113.26 260.823C1110.87 260.823 1108.9 263.605 1108.54 267.246C1108.18 263.605 1106.21 260.823 1103.83 260.823C1106.21 260.823 1108.18 258.04 1108.54 254.403C1108.9 258.04 1110.87 260.823 1113.26 260.823Z" fill="#5DEAF4"/>
<path d="M692.434 115.549C690.051 115.549 688.078 118.332 687.722 121.973C687.364 118.332 685.389 115.549 683.007 115.549C685.389 115.549 687.364 112.766 687.722 109.13C688.078 112.766 690.051 115.549 692.434 115.549Z" fill="#5DEAF4"/>
<path d="M688.347 100.939C685.998 100.939 684.051 102.566 683.7 104.694C683.348 102.566 681.402 100.939 679.053 100.939C681.402 100.939 683.348 99.3132 683.7 97.1873C684.051 99.3132 685.998 100.939 688.347 100.939Z" fill="#5DEAF4"/>
<path d="M321.132 404.276C317.55 404.276 314.581 407.054 314.046 410.686C313.508 407.054 310.54 404.276 306.957 404.276C310.54 404.276 313.508 401.499 314.046 397.87C314.581 401.499 317.55 404.276 321.132 404.276Z" fill="#5DEAF4"/>
<path d="M279.628 691.332C275.776 691.332 272.585 694.317 272.009 698.223C271.431 694.317 268.239 691.332 264.388 691.332C268.239 691.332 271.431 688.347 272.009 684.445C272.585 688.347 275.776 691.332 279.628 691.332Z" fill="#5DEAF4"/>
<path d="M234.079 709.859C231.789 709.859 229.89 711.635 229.548 713.957C229.204 711.635 227.306 709.859 225.016 709.859C227.306 709.859 229.204 708.084 229.548 705.764C229.89 708.084 231.789 709.859 234.079 709.859Z" fill="#5DEAF4"/>
<path d="M999.515 686.938C995.772 686.938 992.672 689.838 992.112 693.633C991.551 689.838 988.45 686.938 984.707 686.938C988.45 686.938 991.551 684.038 992.112 680.246C992.672 684.038 995.772 686.938 999.515 686.938Z" fill="#5DEAF4"/>
<path d="M686.851 267.097C684.054 267.097 681.736 269.266 681.319 272.102C680.898 269.266 678.58 267.097 675.783 267.097C678.58 267.097 680.898 264.929 681.319 262.096C681.736 264.929 684.054 267.097 686.851 267.097Z" fill="#5DEAF4"/>
<path d="M469.374 309.049C466.2 309.049 463.57 311.508 463.097 314.726C462.62 311.508 459.991 309.049 456.818 309.049C459.991 309.049 462.62 306.589 463.097 303.374C463.57 306.589 466.2 309.049 469.374 309.049Z" fill="#5DEAF4"/>
<path d="M494.422 294.052C491.464 294.052 489.013 296.345 488.571 299.345C488.127 296.345 485.676 294.052 482.718 294.052C485.676 294.052 488.127 291.759 488.571 288.762C489.013 291.759 491.464 294.052 494.422 294.052Z" fill="#5DEAF4"/>
<path d="M735.854 610.58C732.356 610.58 729.457 613.292 728.935 616.839C728.409 613.292 725.511 610.58 722.013 610.58C725.511 610.58 728.409 607.869 728.935 604.325C729.457 607.869 732.356 610.58 735.854 610.58Z" fill="#5DEAF4"/>
<path d="M1280.45 659.148C1277.04 659.148 1274.21 661.791 1273.7 665.249C1273.19 661.791 1270.37 659.148 1266.96 659.148C1270.37 659.148 1273.19 656.505 1273.7 653.051C1274.21 656.505 1277.04 659.148 1280.45 659.148Z" fill="#5DEAF4"/>
<path d="M1228.13 96.2973C1224.86 96.2973 1222.15 98.8332 1221.66 102.15C1221.17 98.8332 1218.46 96.2973 1215.19 96.2973C1218.46 96.2973 1221.17 93.7621 1221.66 90.4484C1222.15 93.7621 1224.86 96.2973 1228.13 96.2973Z" fill="#5DEAF4"/>
<path d="M1039.8 357.814C1037.49 357.814 1035.59 359.599 1035.24 361.933C1034.9 359.599 1032.99 357.814 1030.69 357.814C1032.99 357.814 1034.9 356.029 1035.24 353.697C1035.59 356.029 1037.49 357.814 1039.8 357.814Z" fill="#5DEAF4"/>
<path d="M1003.01 397.549C1000.5 397.549 998.413 399.498 998.039 402.047C997.661 399.498 995.578 397.549 993.064 397.549C995.578 397.549 997.661 395.601 998.039 393.055C998.413 395.601 1000.5 397.549 1003.01 397.549Z" fill="#5DEAF4"/>
</g>
<path d="M672.352 55.9009C672.352 55.9009 485.911 127.187 486.908 128.974C487.926 130.799 672.352 55.9009 672.352 55.9009Z" fill="white"/>
<path d="M1209.39 712.406C1210 713.387 1370.33 637.241 1370.33 637.241C1370.33 637.241 1208.63 711.187 1209.39 712.406Z" fill="white"/>
<path d="M424.554 285.936C424.554 285.936 316.939 328.519 317.569 329.454C318.234 330.442 424.554 285.936 424.554 285.936Z" fill="white"/>
<path d="M1370.21 393.306C1371 394.646 1480.04 341.948 1480.04 341.948C1480.04 341.948 1369.52 392.149 1370.21 393.306Z" fill="white"/>
<path d="M241.12 317.195C241.12 317.195 120.59 364.924 121.155 366.002C121.787 367.209 241.12 317.195 241.12 317.195Z" fill="white"/>
<path d="M1185.69 37.8815C1185.69 37.8815 1102.76 71.6115 1103.39 72.6222C1103.97 73.549 1185.69 37.8815 1185.69 37.8815Z" fill="white"/>
<path d="M979.923 192.528C980.621 193.505 1063.85 158.56 1063.85 158.56C1063.85 158.56 979.245 191.549 979.923 192.528Z" fill="white"/>
<path d="M437.379 479.906C437.816 480.494 526.562 441.27 526.562 441.27C526.562 441.27 436.851 479.197 437.379 479.906Z" fill="white"/>
<path d="M860.147 448.844C859.605 447.963 1097.49 327.342 1097.49 327.342C1097.49 327.342 860.758 449.838 860.147 448.844Z" fill="white"/>
</svg>
