<svg width="113" height="86" viewBox="0 0 113 86" fill="none" xmlns="http://www.w3.org/2000/svg">
<path d="M103.306 35.8724C104.527 35.6842 105.445 35.8147 106.057 36.264C106.723 36.705 107.122 37.3504 107.253 38.2001C107.466 39.5809 107.229 40.8679 106.543 42.061C105.91 43.2459 104.721 44 102.977 44.3231C98.7448 45.084 94.925 45.3465 91.5178 45.1103C88.9665 53.6045 85.414 60.8937 80.8603 66.9779C76.3516 73.0008 71.4152 76.4256 66.0514 77.2522C60.5281 78.1033 55.9172 75.5245 52.2184 69.5158C48.5197 63.5072 45.8274 55.0327 44.1415 44.0925C42.7011 34.7455 42.0719 26.2522 42.2539 18.6125C42.3063 15.7773 42.6837 13.8162 43.3861 12.7293C44.1335 11.5811 45.5693 10.8434 47.6936 10.516C51.1987 9.97587 53.1845 11.2194 53.651 14.2465C53.7001 14.5652 53.737 15.1575 53.7617 16.0236C53.6416 25.8286 54.179 34.6079 55.3738 42.3616C56.6259 50.4871 58.2432 56.5719 60.2256 60.6159C62.2529 64.5987 64.6208 66.3814 67.3293 65.964C70.0909 65.5384 72.7969 63.1641 75.4473 58.8412C78.0976 54.5182 80.331 49.2536 82.1475 43.0475C78.5969 41.5286 75.7529 39.3028 73.6155 36.37C71.47 33.3841 70.074 29.7934 69.4274 25.5979C68.7809 21.4024 68.874 17.7725 69.7066 14.7083C70.5842 11.5828 72.0278 9.13119 74.0374 7.35356C76.1 5.56774 78.5122 4.46205 81.2738 4.03649C84.6727 3.51273 87.5429 4.32092 89.8843 6.46108C92.2789 8.59305 93.8035 11.7834 94.4582 16.032C95.3993 22.1394 95.0987 29.009 93.5563 36.6409C96.4447 36.6851 99.6945 36.429 103.306 35.8724ZM77.3873 23.8004C78.1894 29.005 80.4556 32.5975 84.186 34.578C85.3406 28.3108 85.6192 23.2387 85.0218 19.3618C84.6781 17.1313 84.1364 15.5565 83.3967 14.6375C82.6488 13.6654 81.7704 13.2571 80.7613 13.4125C79.3274 13.6335 78.29 14.6633 77.649 16.5019C76.9999 18.2873 76.9127 20.7202 77.3873 23.8004Z" fill="white"/>
<path d="M38.241 65.3901C38.9314 65.2837 39.5116 65.5205 39.9816 66.1005C40.5046 66.6724 40.8521 67.5159 41.024 68.6312C41.3186 70.543 41.1209 72.2589 40.4308 73.7789C39.2957 76.2917 37.6049 78.3736 35.3583 80.0246C33.1649 81.6675 30.3953 82.7467 27.0495 83.2623C21.9511 84.0479 17.7613 83.1441 14.4801 80.5507C11.1908 77.9041 9.14507 73.9786 8.34305 68.774C7.77837 65.1096 8.02466 61.592 9.08194 58.2213C10.131 54.7975 11.8666 51.9476 14.2887 49.6714C16.7639 47.3871 19.7274 45.9789 23.1795 45.447C26.2597 44.9723 28.8724 45.5212 31.0177 47.0935C33.1547 48.6127 34.4646 50.939 34.9475 54.0724C35.5121 57.7368 34.6714 61.1013 32.4252 64.1659C30.2239 67.1692 26.082 69.9279 19.9995 72.4419C21.6506 74.6884 23.9897 75.5785 27.0168 75.112C29.1942 74.7764 30.8956 73.9978 32.1209 72.7759C33.3993 71.5459 34.7838 69.5928 36.2743 66.9165C36.7888 66.0217 37.4444 65.5129 38.241 65.3901ZM23.0282 53.4625C21.0632 53.7653 19.5663 55.1649 18.5374 57.6614C17.5616 60.1496 17.3233 63.0135 17.8225 66.2531L17.8471 66.4124C20.8659 65.186 23.1635 63.6902 24.7401 61.925C26.3166 60.1597 26.9534 58.2946 26.6506 56.3296C26.4951 55.3205 26.0803 54.5689 25.4061 54.0747C24.7768 53.5193 23.9842 53.3152 23.0282 53.4625Z" fill="url(#paint0_linear)"/>
<defs>
<linearGradient id="paint0_linear" x1="8.06685" y1="66.9817" x2="40.0112" y2="62.0591" gradientUnits="userSpaceOnUse">
<stop stop-color="#FF75C3"/>
<stop offset="0.2" stop-color="#FFA647"/>
<stop offset="0.4" stop-color="#FFE83F"/>
<stop offset="0.6" stop-color="#9FFF5B"/>
<stop offset="0.8" stop-color="#70E2FF"/>
<stop offset="1" stop-color="#CD93FF"/>
</linearGradient>
</defs>
</svg>
